<?xml version="1.0" encoding="UTF-8"?>
<svg width="100px" height="75px" viewBox="0 0 100 75" version="1.1" xmlns="http://www.w3.org/2000/svg" xmlns:xlink="http://www.w3.org/1999/xlink">
    <!-- Generator: Sketch 50 (54983) - http://www.bohemiancoding.com/sketch -->
    <title>loading</title>
    <desc>Created with Sketch.</desc>
    <defs></defs>
    <g id="Page-1" stroke="none" stroke-width="1" fill="none" fill-rule="evenodd">
        <g id="APP物流新版本-UI设计规范" transform="translate(-394.000000, -2296.000000)">
            <g id="loading" transform="translate(394.000000, 2296.000000)">
                <rect id="Rectangle-4" fill="#EEEEF1" x="0" y="0" width="100" height="75"></rect>
                <g id="Group-5" transform="translate(30.000000, 16.000000)" fill="#C4CCD9">
                    <text id="加载中" font-family="PingFangSC-Regular, PingFang SC" font-size="13" font-weight="normal" line-spacing="13" letter-spacing="0.4642856">
                        <tspan x="0" y="44">加载中</tspan>
                    </text>
                    <g id="重新加载" transform="translate(8.000000, 0.000000)" fill-rule="nonzero">
                        <path d="M25.7027268,10.1177143 C25.3057913,9.71617857 24.6623589,9.71617857 24.2654234,10.1177143 L23.6514691,10.7389714 C23.0266724,4.7129143 17.9774748,0 11.8589396,0 C11.3849278,0.00236412617 10.9114993,0.0339655985 10.4412881,0.0946285901 C10.2129188,0.122057159 9.98658245,0.158400029 9.76160141,0.199542868 C9.62471536,0.224228577 9.48782931,0.246171426 9.35365388,0.274971439 C9.06700636,0.338742878 8.78374711,0.412114283 8.50455381,0.497142878 C8.30464596,0.556800013 8.110837,0.626742865 7.91499509,0.696000024 C7.81199172,0.733714309 7.70763305,0.771428595 7.60530737,0.811885711 C7.39455707,0.894171417 7.18787269,0.979885706 6.98322127,1.07382857 C6.93985142,1.09371429 6.8964816,1.11634286 6.85311178,1.13691429 C6.39908381,1.35291429 5.96064186,1.59359999 5.54049657,1.86308571 L5.48425132,1.89737145 C5.21843998,2.07049403 4.95980767,2.25465094 4.7090155,2.44937143 C4.13715039,2.88910194 3.6055348,3.3799943 3.12059524,3.9161143 C3.04944162,3.99428573 2.97828796,4.07108572 2.90916729,4.15131429 C2.6962059,4.39945175 2.49429027,4.65707929 2.30402256,4.92342857 C1.88357644,5.50324297 1.51548482,6.12012491 1.2041906,6.76662858 C1.1750515,6.82765716 1.14184646,6.88525715 1.11338502,6.94628573 C1.10660849,6.95862859 1.10525316,6.97165716 1.09983193,6.98400002 C0.377040341,8.55515158 0.00170216295,10.2669552 0,12 C0,18.6171429 5.31958147,24 11.8589396,24 C16.0366746,24 19.828147,21.84 22.0007047,18.2235428 C22.2922515,17.7380372 22.1396434,17.1053004 21.6598449,16.8102857 C21.1800464,16.515271 20.5547475,16.6696944 20.2632007,17.1552 C18.4626748,20.1531429 15.3210723,21.9428571 11.8589396,21.9428571 C6.44109834,21.9428571 2.03296108,17.4822857 2.03296108,12 C2.03486825,10.5273827 2.36226106,9.07384295 2.99116339,7.74582859 C3.29286249,7.10267099 3.66229074,6.49434722 4.0930283,5.93142857 C4.21297301,5.77371429 4.33698363,5.62011429 4.46573783,5.47131429 L4.56467526,5.36091429 C4.98990654,4.88341562 5.45941071,4.44828107 5.96674073,4.06148572 L6.06161225,3.98948573 C6.59116404,3.59648877 7.15797968,3.25768308 7.75371352,2.97805715 L7.80928113,2.95062859 C8.06064763,2.83514588 8.31706458,2.73126756 8.57774042,2.63931431 C8.74579853,2.57760003 8.913179,2.51862859 9.08462538,2.46720001 C9.31299468,2.39862857 9.54475225,2.3369143 9.78057573,2.28548571 C9.89442154,2.26011428 10.010978,2.24228571 10.1255015,2.22102858 C10.4093339,2.16972127 10.6950802,2.12991804 10.9820557,2.10171428 C11.2714138,2.07428571 11.5634826,2.05645714 11.8589396,2.05645714 C16.7909031,2.05645714 20.8737666,5.75588572 21.5690393,10.5538286 L21.1380516,10.1170286 C20.8839339,9.84504428 20.5038636,9.73421367 20.1456786,9.82764716 C19.7874936,9.92108064 19.5077405,10.2040279 19.4152364,10.5664294 C19.3227323,10.9288308 19.4320808,11.3134743 19.7007481,11.5707429 L21.9830857,13.8816 C22.3800978,14.2823014 23.0226994,14.2823014 23.4197115,13.8816 L25.7027268,11.5707429 C26.0990911,11.1691645 26.0990911,10.5186069 25.7027268,10.1170286" id="Shape"></path>
                    </g>
                </g>
            </g>
        </g>
    </g>
</svg>