<?xml version="1.0" encoding="UTF-8"?>
<svg width="100px" height="75px" viewBox="0 0 100 75" version="1.1" xmlns="http://www.w3.org/2000/svg" xmlns:xlink="http://www.w3.org/1999/xlink">
    <!-- Generator: Sketch 50 (54983) - http://www.bohemiancoding.com/sketch -->
    <title>photofailed</title>
    <desc>Created with Sketch.</desc>
    <defs></defs>
    <g id="Page-1" stroke="none" stroke-width="1" fill="none" fill-rule="evenodd">
        <g id="APP物流新版本-UI设计规范" transform="translate(-280.000000, -2296.000000)">
            <g id="photofailed" transform="translate(280.000000, 2296.000000)">
                <rect id="Rectangle-4" fill="#EEEEF1" x="0" y="0" width="100" height="75"></rect>
                <g id="Group-5" transform="translate(23.000000, 16.000000)" fill="#C4CCD9">
                    <text id="加载失败" font-family="PingFangSC-Regular, PingFang SC" font-size="13" font-weight="normal" line-spacing="13" letter-spacing="0.4642856">
                        <tspan x="0" y="44">加载失败</tspan>
                    </text>
                    <g id="图片上传失败1" transform="translate(13.000000, 0.000000)" fill-rule="nonzero">
                        <path d="M25.6961995,0.0162648472 L16.5542824,0.0162648472 C16.2413158,0.0162648472 15.9612932,0.178913319 15.7965739,0.422886026 L11.299739,5.28607533 C10.9703006,5.64390196 10.9867725,6.19690677 11.3326829,6.53846856 L14.8576743,10.0191459 L11.2667952,14.36186 C11.0691321,14.5895679 11.0197163,14.8986 11.1020759,15.1751024 L12.1233352,18.7208391 L6.85231987,14.4431843 L10.3937833,11.1088906 C10.7726375,10.751064 10.7726375,10.1329998 10.3773113,9.79143799 L5.73222912,5.64390196 L7.33000563,1.61021987 C7.39589332,1.4475714 7.41236524,1.26865808 7.3794214,1.10600961 C7.39589332,1.04095022 7.39589332,0.97589083 7.39589332,0.910831441 C7.39589332,0.406621179 6.98409525,0 6.47346565,0 L2.73433918,0 C1.21892228,0 0,1.21986354 0,2.71622948 L0,21.6810413 C0,23.1774072 1.21892228,24.3972707 2.7508111,24.3972707 L25.7126714,24.3972707 C27.2280883,24.3972707 28.4634825,23.1774072 28.4634825,21.6810413 L28.4634825,2.73249432 C28.4470106,1.23612838 27.2116164,0.0162648472 25.6961995,0.0162648472 Z M26.6186272,21.6973061 C26.6186272,22.2015164 26.2068291,22.6081376 25.6961995,22.6081376 L2.73433918,22.6081376 C2.22370957,22.6081376 1.8119115,22.2015164 1.8119115,21.6973061 L1.8119115,2.73249432 C1.8119115,2.22828406 2.22370957,1.82166288 2.71786726,1.82166288 L5.27101528,1.82166288 L3.78854224,5.56257773 C3.65676685,5.92040437 3.73912647,6.3107607 4.01914915,6.55473341 L8.40068061,10.4582967 L4.82627337,13.8251201 C4.43094722,14.1992116 4.44741915,14.8335406 4.87568914,15.1751024 L13.2104821,21.9412788 C13.9023028,22.5105485 14.923562,21.8436897 14.6764832,20.9979177 L12.9798751,15.1425727 L16.8013612,10.539621 C17.0978558,10.1817943 17.064912,9.66131921 16.7354735,9.33602227 L13.2434259,5.87160982 L16.9660804,1.83792773 L25.6961995,1.83792773 C26.2068291,1.83792773 26.6186272,2.24454891 26.6186272,2.74875917 L26.6186272,21.6973061 Z" id="Shape"></path>
                        <path d="M20.0496588,5 C18.3676305,5 17,6.36763051 17,8.04965884 C17,9.73168717 18.3676305,11.0993177 20.0496588,11.0993177 C21.7316872,11.0993177 23.0993177,9.73168717 23.0993177,8.04965884 C23.0993177,6.36763051 21.7316872,5 20.0496588,5 Z M20.0496588,9.37012968 C19.3265439,9.37012968 18.7449079,8.78849372 18.7449079,8.06537873 C18.7449079,7.34226375 19.3265439,6.76062779 20.0496588,6.76062779 C20.7727738,6.76062779 21.3544098,7.34226375 21.3544098,8.06537873 C21.3544098,8.77277383 20.7727738,9.37012968 20.0496588,9.37012968 Z" id="Shape"></path>
                    </g>
                </g>
            </g>
        </g>
    </g>
</svg>